<?xml version="1.0" encoding="UTF-8" standalone="no"?>
<svg width="470px" height="91px" viewBox="0 0 470 91" version="1.1" xmlns="http://www.w3.org/2000/svg" xmlns:xlink="http://www.w3.org/1999/xlink">
    <!-- Generator: Sketch 47.1 (45422) - http://www.bohemiancoding.com/sketch -->
    <title>logo</title>
    <desc>Created with Sketch.</desc>
    <defs></defs>
    <g id="Page-1" stroke="none" stroke-width="1" fill="none" fill-rule="evenodd">
        <g id="Artboard" transform="translate(-135.000000, -30.000000)" fill="#273C72">
            <g id="header">
                <g id="logo" transform="translate(135.000000, 30.000000)">
                    <path d="M23.1587305,48.5346522 C23.4852568,56.2063478 27.9824147,60.9066957 32.2015305,62.7731848 C35.9516358,64.4329457 39.8521411,64.1639022 42.1318884,62.0916739 C42.9620568,61.3369674 43.35092,60.3300326 43.2866042,59.0985652 C43.1678674,56.7820217 41.4768568,54.1509348 38.8686042,52.2290543 C35.7814463,49.9560326 30.6114463,48.3674891 26.2953621,48.3674891 C25.2326674,48.3674891 24.1848147,48.4248587 23.1587305,48.5346522 M26.2953621,90.4243261 C11.7966042,90.4243261 9.89473684e-05,80.5191739 9.89473684e-05,68.3439674 C9.89473684e-05,57.6811413 9.04883579,48.761163 21.03532,46.7087174 L21.03532,1.05243478 C21.03532,0.470826087 21.5063095,0 22.0871305,0 L30.5026042,0 C31.0844147,0 31.5554042,0.470826087 31.5554042,1.05243478 L31.5554042,12.6173478 L42.07252,12.6173478 L42.07252,1.05243478 C42.07252,0.470826087 42.5435095,0 43.1243305,0 L51.5388147,0 C52.1196358,0 52.5906253,0.470826087 52.5906253,1.05243478 L52.5906253,34.6986957 C52.5906253,35.2803043 52.1196358,35.7511304 51.5388147,35.7511304 L43.1243305,35.7511304 C42.5435095,35.7511304 42.07252,35.2803043 42.07252,34.6986957 L42.07252,23.1337826 L31.5554042,23.1337826 L31.5554042,42.1043152 C31.5554042,42.6849348 31.0844147,43.15675 30.5026042,43.15675 C29.9217832,43.15675 29.4507937,42.6849348 29.4507937,42.1043152 L29.4507937,22.0813478 C29.4507937,21.5007283 29.9217832,21.0299022 30.5026042,21.0299022 L43.1243305,21.0299022 C43.7061411,21.0299022 44.1771305,21.5007283 44.1771305,22.0813478 L44.1771305,33.64725 L50.4860147,33.64725 L50.4860147,2.10388043 L44.1771305,2.10388043 L44.1771305,13.6687935 C44.1771305,14.2504022 43.7061411,14.7212283 43.1243305,14.7212283 L30.5026042,14.7212283 C29.9217832,14.7212283 29.4507937,14.2504022 29.4507937,13.6687935 L29.4507937,2.10388043 L23.1399305,2.10388043 L23.1399305,46.4218696 C24.17492,46.3180109 25.2267305,46.2645978 26.2953621,46.2645978 C30.2888779,46.2645978 36.1109411,47.585087 40.11732,50.5366522 C43.2183305,52.8215435 45.2378463,56.0609457 45.3882463,58.9897609 C45.4842253,60.85625 44.8460147,62.4655652 43.5458463,63.6475761 C40.6476779,66.278663 35.8586253,66.6891522 31.3495937,64.6970435 C26.5832989,62.5892065 21.50532,57.3418696 21.0659937,48.8373261 C10.2312568,50.815587 2.10470947,58.8107283 2.10470947,68.3439674 C2.10470947,79.3589239 12.9562674,88.3204457 26.2953621,88.3204457 C35.6508358,88.3204457 43.3895095,84.8891522 49.3124989,78.1185543 L44.4937621,74.0472935 C41.0216989,77.8534674 35.1907305,82.01375 26.2953621,82.01375 C16.6034674,82.01375 8.41557263,75.7545326 8.41557263,68.3439674 C8.41557263,63.3488587 12.06772,58.7355543 17.9481621,56.3032826 C18.4795095,56.086663 19.09892,56.336913 19.3225411,56.875 C19.5441832,57.4111087 19.2888989,58.0253587 18.7506253,58.247913 C13.6736358,60.3458587 10.5201832,64.2163261 10.5201832,68.3439674 C10.5201832,74.6130761 17.7433411,79.9098696 26.2953621,79.9098696 C35.00372,79.9098696 40.5012358,75.5537391 43.5794884,71.9008804 C43.7595726,71.6862391 44.0178253,71.5527065 44.2958674,71.5299565 C44.5758884,71.5042391 44.8509621,71.5952391 45.0627095,71.7752609 L51.4735095,77.1927283 C51.9138253,77.5636522 51.9731937,78.2184565 51.6060989,78.6635652 C45.2744568,86.3570217 36.5225621,90.4243261 26.2953621,90.4243261" id="Fill-1"></path>
                    <path d="M96.6402126,18.9260217 C96.0593916,18.9260217 95.5884021,19.3968478 95.5884021,19.9774674 L95.5884021,27.3385761 L79.8122337,27.3385761 L79.8122337,19.9774674 C79.8122337,19.3968478 79.3412442,18.9260217 78.7604232,18.9260217 C78.1786126,18.9260217 77.7076232,19.3968478 77.7076232,19.9774674 L77.7076232,36.801587 C77.7076232,37.3822065 78.1786126,37.8530326 78.7604232,37.8530326 C79.3412442,37.8530326 79.8122337,37.3822065 79.8122337,36.801587 L79.8122337,29.4424565 L95.5884021,29.4424565 L95.5884021,36.801587 C95.5884021,37.3822065 96.0593916,37.8530326 96.6402126,37.8530326 C97.2210337,37.8530326 97.6920232,37.3822065 97.6920232,36.801587 L97.6920232,19.9774674 C97.6920232,19.3968478 97.2210337,18.9260217 96.6402126,18.9260217" id="Fill-3"></path>
                    <path d="M116.308872,35.7494489 C111.466387,35.7494489 107.527293,32.4487207 107.527293,28.3903185 C107.527293,24.3319163 111.466387,21.0301989 116.308872,21.0301989 C121.151356,21.0301989 125.090451,24.3319163 125.090451,28.3903185 C125.090451,32.4487207 121.151356,35.7494489 116.308872,35.7494489 M116.308872,18.9263185 C110.306724,18.9263185 105.422682,23.1716663 105.422682,28.3903185 C105.422682,33.6079815 110.306724,37.8533293 116.308872,37.8533293 C122.311019,37.8533293 127.195061,33.6079815 127.195061,28.3903185 C127.195061,23.1716663 122.311019,18.9263185 116.308872,18.9263185" id="Fill-5"></path>
                    <path d="M153.857716,18.9260217 L135.977926,18.9260217 C135.396116,18.9260217 134.925126,19.3968478 134.925126,19.9774674 C134.925126,20.5590761 135.396116,21.0299022 135.977926,21.0299022 L143.865021,21.0299022 L143.865021,36.801587 C143.865021,37.3822065 144.336011,37.8530326 144.917821,37.8530326 C145.498642,37.8530326 145.969632,37.3822065 145.969632,36.801587 L145.969632,21.0299022 L153.857716,21.0299022 C154.438537,21.0299022 154.909526,20.5590761 154.909526,19.9774674 C154.909526,19.3968478 154.438537,18.9260217 153.857716,18.9260217" id="Fill-7"></path>
                    <path d="M182.467853,21.0298033 C183.048674,21.0298033 183.519663,20.5589772 183.519663,19.9783576 C183.519663,19.3967489 183.048674,18.9259228 182.467853,18.9259228 L164.586084,18.9259228 C164.005263,18.9259228 163.534274,19.3967489 163.534274,19.9783576 L163.534274,36.801488 C163.534274,37.3821076 164.005263,37.8529337 164.586084,37.8529337 L182.467853,37.8529337 C183.048674,37.8529337 183.519663,37.3821076 183.519663,36.801488 C183.519663,36.2198793 183.048674,35.7490533 182.467853,35.7490533 L165.638884,35.7490533 L165.638884,29.4423576 L178.890905,29.4423576 C179.471726,29.4423576 179.942716,28.9715315 179.942716,28.3899228 C179.942716,27.8093033 179.471726,27.3384772 178.890905,27.3384772 L165.638884,27.3384772 L165.638884,21.0298033 L182.467853,21.0298033 Z" id="Fill-9"></path>
                    <path d="M211.076604,35.7494489 L194.247636,35.7494489 L194.247636,19.9777641 C194.247636,19.3971446 193.776646,18.9263185 193.194836,18.9263185 C192.614015,18.9263185 192.143025,19.3971446 192.143025,19.9777641 L192.143025,36.8008946 C192.143025,37.3825033 192.614015,37.8533293 193.194836,37.8533293 L211.076604,37.8533293 C211.657425,37.8533293 212.128415,37.3825033 212.128415,36.8008946 C212.128415,36.220275 211.657425,35.7494489 211.076604,35.7494489" id="Fill-11"></path>
                    <path d="M239.685356,35.7494489 L222.857377,35.7494489 L222.857377,19.9777641 C222.857377,19.3971446 222.386387,18.9263185 221.805566,18.9263185 C221.223756,18.9263185 220.752766,19.3971446 220.752766,19.9777641 L220.752766,36.8008946 C220.752766,37.3825033 221.223756,37.8533293 221.805566,37.8533293 L239.685356,37.8533293 C240.267166,37.8533293 240.737166,37.3825033 240.737166,36.8008946 C240.737166,36.220275 240.267166,35.7494489 239.685356,35.7494489" id="Fill-13"></path>
                    <path d="M125.248964,52.5723815 C124.668143,52.5723815 124.197154,53.0441967 124.197154,53.6238272 L124.197154,60.9839467 L108.420985,60.9839467 L108.420985,53.6238272 C108.420985,53.0441967 107.949996,52.5723815 107.369175,52.5723815 C106.787364,52.5723815 106.316375,53.0441967 106.316375,53.6238272 L106.316375,70.4459685 C106.316375,71.0275772 106.787364,71.4984033 107.369175,71.4984033 C107.949996,71.4984033 108.420985,71.0275772 108.420985,70.4459685 L108.420985,63.0878272 L124.197154,63.0878272 L124.197154,70.4459685 C124.197154,71.0275772 124.668143,71.4984033 125.248964,71.4984033 C125.829785,71.4984033 126.300775,71.0275772 126.300775,70.4459685 L126.300775,53.6238272 C126.300775,53.0441967 125.829785,52.5723815 125.248964,52.5723815" id="Fill-15"></path>
                    <path d="M230.745263,69.394325 C225.902779,69.394325 221.963684,66.0935967 221.963684,62.0361837 C221.963684,57.9767924 225.902779,54.6760641 230.745263,54.6760641 C235.587747,54.6760641 239.527832,57.9767924 239.527832,62.0361837 C239.527832,66.0935967 235.587747,69.394325 230.745263,69.394325 M230.745263,52.5721837 C224.743116,52.5721837 219.859074,56.8175315 219.859074,62.0361837 C219.859074,67.2528576 224.743116,71.4982054 230.745263,71.4982054 C236.747411,71.4982054 241.632442,67.2528576 241.632442,62.0361837 C241.632442,56.8175315 236.747411,52.5721837 230.745263,52.5721837" id="Fill-17"></path>
                    <path d="M268.294107,52.5723815 L250.414318,52.5723815 C249.833497,52.5723815 249.361518,53.0441967 249.361518,53.6238272 C249.361518,54.2054359 249.833497,54.676262 250.414318,54.676262 L258.301413,54.676262 L258.301413,70.4459685 C258.301413,71.0275772 258.773392,71.4984033 259.354213,71.4984033 C259.936023,71.4984033 260.406023,71.0275772 260.406023,70.4459685 L260.406023,54.676262 L268.294107,54.676262 C268.875918,54.676262 269.345918,54.2054359 269.345918,53.6238272 C269.345918,53.0441967 268.875918,52.5723815 268.294107,52.5723815" id="Fill-19"></path>
                    <path d="M296.904739,52.5723815 L279.022971,52.5723815 C278.442149,52.5723815 277.970171,53.0441967 277.970171,53.6238272 C277.970171,54.2054359 278.442149,54.676262 279.022971,54.676262 L286.910065,54.676262 L286.910065,70.4459685 C286.910065,71.0275772 287.382044,71.4984033 287.962865,71.4984033 C288.544676,71.4984033 289.014676,71.0275772 289.014676,70.4459685 L289.014676,54.676262 L296.904739,54.676262 C297.48556,54.676262 297.956549,54.2054359 297.956549,53.6238272 C297.956549,53.0441967 297.48556,52.5723815 296.904739,52.5723815" id="Fill-21"></path>
                    <path d="M211.076604,69.394325 L194.248625,69.394325 L194.248625,53.6246185 C194.248625,53.0439989 193.777636,52.5721837 193.196815,52.5721837 C192.615004,52.5721837 192.144015,53.0439989 192.144015,53.6246185 L192.144015,70.4457707 C192.144015,71.0273793 192.615004,71.4982054 193.196815,71.4982054 L211.076604,71.4982054 C211.657425,71.4982054 212.128415,71.0273793 212.128415,70.4457707 C212.128415,69.8661402 211.657425,69.394325 211.076604,69.394325" id="Fill-23"></path>
                    <path d="M354.122242,52.5723815 C353.540432,52.5723815 353.070432,53.0441967 353.070432,53.6238272 L353.070432,68.0136967 L336.9618,52.8592293 C336.658032,52.5713924 336.212768,52.4962185 335.824895,52.659425 C335.439,52.826588 335.189653,53.2044359 335.189653,53.6238272 L335.189653,70.4459685 C335.189653,71.0275772 335.660642,71.4984033 336.242453,71.4984033 C336.823274,71.4984033 337.294263,71.0275772 337.294263,70.4459685 L337.294263,56.057088 L353.400916,71.2115554 C353.600789,71.3994902 353.859042,71.4984033 354.122242,71.4984033 C354.262747,71.4984033 354.404242,71.4687293 354.5398,71.4113598 C354.925695,71.2451859 355.174053,70.8663489 355.174053,70.4459685 L355.174053,53.6238272 C355.174053,53.0441967 354.703063,52.5723815 354.122242,52.5723815" id="Fill-25"></path>
                    <path d="M90.0134105,54.676163 C92.2397263,54.676163 94.3572,55.1895217 96.1352842,56.1598587 C96.6488211,56.4378043 97.2850526,56.2498696 97.5630947,55.7414565 C97.8421263,55.2320543 97.6551158,54.592087 97.1445474,54.3141413 C95.0577474,53.174663 92.5919789,52.5722826 90.0134105,52.5722826 C83.2285895,52.5722826 77.7073263,56.8176304 77.7073263,62.0352935 C77.7073263,67.2529565 83.2285895,71.4983043 90.0134105,71.4983043 C92.5919789,71.4983043 95.0577474,70.8949348 97.1445474,69.7564457 C97.6551158,69.4785 97.8421263,68.8395217 97.5630947,68.3301196 C97.2850526,67.8207174 96.6488211,67.6327826 96.1352842,67.9107283 C94.3572,68.8810652 92.2397263,69.3944239 90.0134105,69.3944239 C84.3882526,69.3944239 79.8119368,66.0936957 79.8119368,62.0352935 C79.8119368,57.9768913 84.3882526,54.676163 90.0134105,54.676163" id="Fill-27"></path>
                    <path d="M183.520158,57.8290163 C183.520158,54.9308641 180.907947,52.5727772 177.699084,52.5727772 L164.586579,52.5727772 C164.004768,52.5727772 163.533779,53.0436033 163.533779,53.6242228 L163.533779,70.4463641 C163.533779,71.0279728 164.004768,71.4978098 164.586579,71.4978098 C165.1674,71.4978098 165.638389,71.0279728 165.638389,70.4463641 L165.638389,54.6756685 L177.699084,54.6756685 C179.748284,54.6756685 181.415547,56.090125 181.415547,57.8290163 C181.415547,59.5698859 179.748284,60.9833533 177.699084,60.9833533 L168.796789,60.9833533 C168.215968,60.9833533 167.744979,61.4541793 167.744979,62.035788 C167.744979,62.6164076 168.215968,63.0872337 168.796789,63.0872337 L177.087589,63.0872337 L181.553084,70.9646685 C181.746032,71.3059185 182.102242,71.4978098 182.469337,71.4978098 C182.644474,71.4978098 182.822579,71.4532989 182.986832,71.3613098 C183.491463,71.0754511 183.669568,70.4335054 183.382621,69.9270707 L179.365358,62.8409402 C181.759884,62.1891033 183.520158,60.2019402 183.520158,57.8290163" id="Fill-29"></path>
                    <path d="M441.001693,57.8290163 C441.001693,54.9308641 438.389482,52.5727772 435.180619,52.5727772 L422.068114,52.5727772 C421.486303,52.5727772 421.016303,53.0436033 421.016303,53.6242228 L421.016303,70.4463641 C421.016303,71.0279728 421.486303,71.4978098 422.068114,71.4978098 C422.648935,71.4978098 423.120914,71.0279728 423.120914,70.4463641 L423.120914,54.6756685 L435.180619,54.6756685 C437.229819,54.6756685 438.897082,56.090125 438.897082,57.8290163 C438.897082,59.5698859 437.229819,60.9833533 435.180619,60.9833533 L426.278324,60.9833533 C425.697503,60.9833533 425.226514,61.4541793 425.226514,62.035788 C425.226514,62.6164076 425.697503,63.0872337 426.278324,63.0872337 L434.569124,63.0872337 L439.035608,70.9646685 C439.227566,71.3059185 439.583777,71.4978098 439.950872,71.4978098 C440.126008,71.4978098 440.305103,71.4532989 440.468366,71.3613098 C440.972998,71.0754511 441.151103,70.4335054 440.864156,69.9270707 L436.846893,62.8409402 C439.241419,62.1891033 441.001693,60.2019402 441.001693,57.8290163" id="Fill-31"></path>
                    <path d="M377.962324,60.9838478 L369.060029,60.9838478 C368.478219,60.9838478 368.007229,61.4546739 368.007229,62.0352935 C368.007229,62.615913 368.478219,63.0877283 369.060029,63.0877283 L377.962324,63.0877283 C380.011524,63.0877283 381.678787,64.5021848 381.678787,66.2410761 C381.678787,67.9799674 380.011524,69.3944239 377.962324,69.3944239 L365.902619,69.3944239 L365.902619,54.676163 L377.962324,54.676163 C380.011524,54.676163 381.678787,56.0906196 381.678787,57.8295109 C381.678787,59.5693913 380.011524,60.9838478 377.962324,60.9838478 M383.783398,57.8295109 C383.783398,54.9313587 381.171187,52.5722826 377.962324,52.5722826 L364.850808,52.5722826 C364.268998,52.5722826 363.798998,53.0440978 363.798998,53.6247174 L363.798998,70.4458696 C363.798998,71.0274783 364.268998,71.4983043 364.850808,71.4983043 L377.962324,71.4983043 C381.171187,71.4983043 383.783398,69.1392283 383.783398,66.2410761 C383.783398,64.5229565 382.865166,62.9957391 381.450219,62.0352935 C382.865166,61.0748478 383.783398,59.5476304 383.783398,57.8295109" id="Fill-33"></path>
                    <path d="M325.513491,54.676163 C326.094312,54.676163 326.565301,54.205337 326.565301,53.6247174 C326.565301,53.0440978 326.094312,52.5722826 325.513491,52.5722826 L307.631722,52.5722826 C307.050901,52.5722826 306.578922,53.0440978 306.578922,53.6247174 L306.578922,70.4458696 C306.578922,71.0274783 307.050901,71.4983043 307.631722,71.4983043 L325.513491,71.4983043 C326.094312,71.4983043 326.565301,71.0274783 326.565301,70.4458696 C326.565301,69.86525 326.094312,69.3944239 325.513491,69.3944239 L308.683533,69.3944239 L308.683533,63.0877283 L321.937533,63.0877283 C322.519343,63.0877283 322.989343,62.615913 322.989343,62.0352935 C322.989343,61.4546739 322.519343,60.9838478 321.937533,60.9838478 L308.683533,60.9838478 L308.683533,54.676163 L325.513491,54.676163 Z" id="Fill-35"></path>
                    <path d="M411.339745,54.676163 C411.920566,54.676163 412.391556,54.205337 412.391556,53.6247174 C412.391556,53.0440978 411.920566,52.5722826 411.339745,52.5722826 L393.459956,52.5722826 C392.878145,52.5722826 392.407156,53.0440978 392.407156,53.6247174 L392.407156,70.4458696 C392.407156,71.0274783 392.878145,71.4983043 393.459956,71.4983043 L411.339745,71.4983043 C411.920566,71.4983043 412.391556,71.0274783 412.391556,70.4458696 C412.391556,69.86525 411.920566,69.3944239 411.339745,69.3944239 L394.511766,69.3944239 L394.511766,63.0877283 L407.763787,63.0877283 C408.345598,63.0877283 408.815598,62.615913 408.815598,62.0352935 C408.815598,61.4546739 408.345598,60.9838478 407.763787,60.9838478 L394.511766,60.9838478 L394.511766,54.676163 L411.339745,54.676163 Z" id="Fill-37"></path>
                    <path d="M468.558139,60.9838478 L461.405234,60.9838478 C460.824413,60.9838478 460.353423,61.4546739 460.353423,62.0352935 C460.353423,62.615913 460.824413,63.0877283 461.405234,63.0877283 L467.506328,63.0877283 L467.506328,68.1906522 C465.846981,68.9799783 463.93136,69.3944239 461.930644,69.3944239 C456.304497,69.3944239 451.729171,66.0936957 451.729171,62.0352935 C451.729171,57.9768913 456.304497,54.676163 461.930644,54.676163 C464.15696,54.676163 466.273444,55.1895217 468.053507,56.1598587 C468.569023,56.4378043 469.203276,56.2498696 469.482307,55.7414565 C469.760349,55.2320543 469.57136,54.592087 469.062771,54.3141413 C466.973992,53.174663 464.507234,52.5722826 461.930644,52.5722826 C455.144834,52.5722826 449.62456,56.8176304 449.62456,62.0352935 C449.62456,67.2529565 455.144834,71.4983043 461.930644,71.4983043 C464.507234,71.4983043 466.973992,70.8959239 469.062771,69.7564457 C469.401171,69.5734565 469.609949,69.2193478 469.609949,68.8345761 L469.609949,62.0352935 C469.609949,61.4546739 469.139949,60.9838478 468.558139,60.9838478" id="Fill-39"></path>
                    <path d="M145.846739,53.1306467 C145.574634,52.6202554 144.943349,52.4263859 144.423876,52.6964185 C143.911328,52.9684293 143.716402,53.6054293 143.988507,54.118788 L149.873897,65.1891359 L139.962339,65.1891359 L143.465076,58.5985598 C143.738171,58.0871793 143.542255,57.4491902 143.028718,57.1771793 C142.514192,56.9061576 141.879939,57.1020054 141.606844,57.6133859 L135.048613,69.9537772 C134.776507,70.4651576 134.971434,71.1031467 135.484971,71.3751576 C135.641307,71.4572554 135.810507,71.4978098 135.975749,71.4978098 C136.352739,71.4978098 136.716865,71.295038 136.906844,70.9389511 L138.844234,67.2930163 L150.992002,67.2930163 L152.930381,70.9409293 C153.12036,71.295038 153.483497,71.4978098 153.860486,71.4978098 C154.025728,71.4978098 154.195918,71.4572554 154.353244,71.3751576 C154.864802,71.1031467 155.060718,70.4651576 154.788613,69.952788 L145.846739,53.1306467 Z" id="Fill-41"></path>
                </g>
            </g>
        </g>
    </g>
</svg>