<?xml version="1.0" encoding="UTF-8" standalone="no"?>
<svg width="382px" height="74px" viewBox="0 0 382 74" version="1.1" xmlns="http://www.w3.org/2000/svg" xmlns:xlink="http://www.w3.org/1999/xlink">
    <!-- Generator: Sketch 47.1 (45422) - http://www.bohemiancoding.com/sketch -->
    <title>logo</title>
    <desc>Created with Sketch.</desc>
    <defs></defs>
    <g id="Page-1" stroke="none" stroke-width="1" fill="none" fill-rule="evenodd">
        <g id="Artboard" transform="translate(-855.000000, -2604.000000)" fill="#FFF7E7">
            <g id="contact" transform="translate(720.000000, 2340.000000)">
                <g id="logo" transform="translate(135.000000, 264.000000)">
                    <path d="M18.8226278,39.4677391 C19.0880173,45.7062609 22.7431541,49.5285217 26.1723078,51.0463261 C29.2202657,52.3960217 32.3904636,52.1772391 34.2433646,50.4921304 C34.9180973,49.878413 35.234152,49.059587 35.1818783,48.0581739 C35.0853731,46.1743913 33.7109773,44.0348261 31.5910783,42.4719783 C29.0819415,40.623587 24.8799415,39.3318043 21.3719752,39.3318043 C20.5082531,39.3318043 19.6565941,39.3784565 18.8226278,39.4677391 M21.3719752,73.5318696 C9.58787832,73.5318696 8.04210526e-05,65.4771304 8.04210526e-05,55.576413 C8.04210526e-05,46.9055435 7.35458568,39.6519348 17.096792,37.982913 L17.096792,0.855826087 C17.096792,0.382869565 17.4795962,0 17.9516678,0 L24.7914783,0 C25.2643541,0 25.6471583,0.382869565 25.6471583,0.855826087 L25.6471583,10.2602609 L34.195112,10.2602609 L34.195112,0.855826087 C34.195112,0.382869565 34.5779162,0 35.0499878,0 L41.8889941,0 C42.3610657,0 42.7438699,0.382869565 42.7438699,0.855826087 L42.7438699,28.2165217 C42.7438699,28.6894783 42.3610657,29.0723478 41.8889941,29.0723478 L35.0499878,29.0723478 C34.5779162,29.0723478 34.195112,28.6894783 34.195112,28.2165217 L34.195112,18.812087 L25.6471583,18.812087 L25.6471583,34.2386739 C25.6471583,34.7108261 25.2643541,35.0945 24.7914783,35.0945 C24.3194067,35.0945 23.9366025,34.7108261 23.9366025,34.2386739 L23.9366025,17.9562609 C23.9366025,17.4841087 24.3194067,17.1012391 24.7914783,17.1012391 L35.0499878,17.1012391 C35.5228636,17.1012391 35.9056678,17.4841087 35.9056678,17.9562609 L35.9056678,27.3615 L41.0333141,27.3615 L41.0333141,1.71084783 L35.9056678,1.71084783 L35.9056678,11.1152826 C35.9056678,11.5882391 35.5228636,11.9711087 35.0499878,11.9711087 L24.7914783,11.9711087 C24.3194067,11.9711087 23.9366025,11.5882391 23.9366025,11.1152826 L23.9366025,1.71084783 L18.8073478,1.71084783 L18.8073478,37.7496522 C19.648552,37.6651957 20.5034278,37.6217609 21.3719752,37.6217609 C24.6177688,37.6217609 29.3497436,38.6955652 32.605992,41.0957391 C35.1263878,42.9537826 36.7677815,45.5880217 36.8900215,47.9696957 C36.9680299,49.4875 36.4493141,50.7961739 35.3925815,51.7573696 C33.0370488,53.8969348 29.1446699,54.2307391 25.4798825,52.6107826 C21.6060004,50.8967174 17.478792,46.6296522 17.1217225,39.7138696 C8.31561726,41.3225652 1.71063621,47.8241087 1.71063621,55.576413 C1.71063621,64.5336304 10.5304131,71.8210217 21.3719752,71.8210217 C28.9757857,71.8210217 35.2655162,69.0307391 40.0795204,63.5249783 L36.1630152,60.2142826 C33.3410404,63.309413 28.6018278,66.6925 21.3719752,66.6925 C13.4947331,66.6925 6.83989095,61.602587 6.83989095,55.576413 C6.83989095,51.5144565 9.808232,47.7629783 14.5876552,45.785087 C15.0195162,45.6089348 15.522952,45.8124348 15.7047036,46.25 C15.8848467,46.6859565 15.6773604,47.1854565 15.2398699,47.3664348 C11.1134657,49.0724565 8.55044674,52.2198696 8.55044674,55.576413 C8.55044674,60.6743696 14.4211836,64.9816522 21.3719752,64.9816522 C28.449832,64.9816522 32.9180257,61.4393043 35.4199246,58.4688478 C35.5662909,58.2943043 35.7761899,58.1857174 36.0021731,58.1672174 C36.2297646,58.1463043 36.4533352,58.2203043 36.6254362,58.3666957 L41.8359162,62.7721087 C42.1937899,63.0737391 42.2420425,63.6062174 41.9436804,63.9681739 C36.7975373,70.2243913 29.6842952,73.5318696 21.3719752,73.5318696" id="Fill-1"></path>
                    <path d="M78.5458749,15.3903913 C78.0738034,15.3903913 77.6909992,15.7732609 77.6909992,16.245413 L77.6909992,22.2313696 L64.8686665,22.2313696 L64.8686665,16.245413 C64.8686665,15.7732609 64.4858623,15.3903913 64.0137907,15.3903913 C63.5409149,15.3903913 63.1581107,15.7732609 63.1581107,16.245413 L63.1581107,29.9265652 C63.1581107,30.3987174 63.5409149,30.781587 64.0137907,30.781587 C64.4858623,30.781587 64.8686665,30.3987174 64.8686665,29.9265652 L64.8686665,23.9422174 L77.6909992,23.9422174 L77.6909992,29.9265652 C77.6909992,30.3987174 78.0738034,30.781587 78.5458749,30.781587 C79.0179465,30.781587 79.4007507,30.3987174 79.4007507,29.9265652 L79.4007507,16.245413 C79.4007507,15.7732609 79.0179465,15.3903913 78.5458749,15.3903913" id="Fill-3"></path>
                    <path d="M94.5318914,29.0709804 C90.5960851,29.0709804 87.3945229,26.3868717 87.3945229,23.0866326 C87.3945229,19.7863935 90.5960851,17.1014804 94.5318914,17.1014804 C98.4676977,17.1014804 101.66926,19.7863935 101.66926,23.0866326 C101.66926,26.3868717 98.4676977,29.0709804 94.5318914,29.0709804 M94.5318914,15.3906326 C89.6535503,15.3906326 85.6839672,18.8428935 85.6839672,23.0866326 C85.6839672,27.3295674 89.6535503,30.7818283 94.5318914,30.7818283 C99.4102324,30.7818283 103.379816,27.3295674 103.379816,23.0866326 C103.379816,18.8428935 99.4102324,15.3906326 94.5318914,15.3906326" id="Fill-5"></path>
                    <path d="M125.050314,15.3903913 L110.518229,15.3903913 C110.045354,15.3903913 109.662549,15.7732609 109.662549,16.245413 C109.662549,16.7183696 110.045354,17.1012391 110.518229,17.1012391 L116.928592,17.1012391 L116.928592,29.9265652 C116.928592,30.3987174 117.311396,30.781587 117.784272,30.781587 C118.256343,30.781587 118.639147,30.3987174 118.639147,29.9265652 L118.639147,17.1012391 L125.050314,17.1012391 C125.522385,17.1012391 125.905189,16.7183696 125.905189,16.245413 C125.905189,15.7732609 125.522385,15.3903913 125.050314,15.3903913" id="Fill-7"></path>
                    <path d="M148.303659,17.1011587 C148.775731,17.1011587 149.158535,16.7182891 149.158535,16.246137 C149.158535,15.7731804 148.775731,15.3903109 148.303659,15.3903109 L133.769966,15.3903109 C133.297895,15.3903109 132.915091,15.7731804 132.915091,16.246137 L132.915091,29.9264848 C132.915091,30.398637 133.297895,30.7815065 133.769966,30.7815065 L148.303659,30.7815065 C148.775731,30.7815065 149.158535,30.398637 149.158535,29.9264848 C149.158535,29.4535283 148.775731,29.0706587 148.303659,29.0706587 L134.625646,29.0706587 L134.625646,23.942137 L145.396438,23.942137 C145.868509,23.942137 146.251314,23.5592674 146.251314,23.0863109 C146.251314,22.6141587 145.868509,22.2312891 145.396438,22.2312891 L134.625646,22.2312891 L134.625646,17.1011587 L148.303659,17.1011587 Z" id="Fill-9"></path>
                    <path d="M171.555878,29.0709804 L157.877866,29.0709804 L157.877866,16.2456543 C157.877866,15.7735022 157.495061,15.3906326 157.022186,15.3906326 C156.550114,15.3906326 156.16731,15.7735022 156.16731,16.2456543 L156.16731,29.9260022 C156.16731,30.3989587 156.550114,30.7818283 157.022186,30.7818283 L171.555878,30.7818283 C172.02795,30.7818283 172.410754,30.3989587 172.410754,29.9260022 C172.410754,29.45385 172.02795,29.0709804 171.555878,29.0709804" id="Fill-11"></path>
                    <path d="M194.808098,29.0709804 L181.130889,29.0709804 L181.130889,16.2456543 C181.130889,15.7735022 180.748085,15.3906326 180.276013,15.3906326 C179.803138,15.3906326 179.420333,15.7735022 179.420333,16.2456543 L179.420333,29.9260022 C179.420333,30.3989587 179.803138,30.7818283 180.276013,30.7818283 L194.808098,30.7818283 C195.280973,30.7818283 195.662973,30.3989587 195.662973,29.9260022 C195.662973,29.45385 195.280973,29.0709804 194.808098,29.0709804" id="Fill-13"></path>
                    <path d="M101.798094,42.7511674 C101.326023,42.7511674 100.943219,43.1348413 100.943219,43.6061891 L100.943219,49.5913413 L88.1208859,49.5913413 L88.1208859,43.6061891 C88.1208859,43.1348413 87.7380817,42.7511674 87.2660101,42.7511674 C86.7931343,42.7511674 86.4103301,43.1348413 86.4103301,43.6061891 L86.4103301,57.2857326 C86.4103301,57.7586891 86.7931343,58.1415587 87.2660101,58.1415587 C87.7380817,58.1415587 88.1208859,57.7586891 88.1208859,57.2857326 L88.1208859,51.3021891 L100.943219,51.3021891 L100.943219,57.2857326 C100.943219,57.7586891 101.326023,58.1415587 101.798094,58.1415587 C102.270166,58.1415587 102.65297,57.7586891 102.65297,57.2857326 L102.65297,43.6061891 C102.65297,43.1348413 102.270166,42.7511674 101.798094,42.7511674" id="Fill-15"></path>
                    <path d="M187.541895,56.43055 C183.606088,56.43055 180.404526,53.7464413 180.404526,50.4470065 C180.404526,47.145963 183.606088,44.4618543 187.541895,44.4618543 C191.477701,44.4618543 194.680067,47.145963 194.680067,50.4470065 C194.680067,53.7464413 191.477701,56.43055 187.541895,56.43055 M187.541895,42.7510065 C182.663554,42.7510065 178.693971,46.2032674 178.693971,50.4470065 C178.693971,54.689137 182.663554,58.1413978 187.541895,58.1413978 C192.420236,58.1413978 196.390623,54.689137 196.390623,50.4470065 C196.390623,46.2032674 192.420236,42.7510065 187.541895,42.7510065" id="Fill-17"></path>
                    <path d="M218.060317,42.7511674 L203.528233,42.7511674 C203.056161,42.7511674 202.672553,43.1348413 202.672553,43.6061891 C202.672553,44.0791457 203.056161,44.4620152 203.528233,44.4620152 L209.938595,44.4620152 L209.938595,57.2857326 C209.938595,57.7586891 210.322203,58.1415587 210.794275,58.1415587 C211.267151,58.1415587 211.649151,57.7586891 211.649151,57.2857326 L211.649151,44.4620152 L218.060317,44.4620152 C218.533193,44.4620152 218.915193,44.0791457 218.915193,43.6061891 C218.915193,43.1348413 218.533193,42.7511674 218.060317,42.7511674" id="Fill-19"></path>
                    <path d="M241.314064,42.7511674 L226.780372,42.7511674 C226.3083,42.7511674 225.924692,43.1348413 225.924692,43.6061891 C225.924692,44.0791457 226.3083,44.4620152 226.780372,44.4620152 L233.190734,44.4620152 L233.190734,57.2857326 C233.190734,57.7586891 233.574342,58.1415587 234.046414,58.1415587 C234.51929,58.1415587 234.90129,57.7586891 234.90129,57.2857326 L234.90129,44.4620152 L241.314064,44.4620152 C241.786136,44.4620152 242.16894,44.0791457 242.16894,43.6061891 C242.16894,43.1348413 241.786136,42.7511674 241.314064,42.7511674" id="Fill-21"></path>
                    <path d="M171.555878,56.43055 L157.87867,56.43055 L157.87867,43.6068326 C157.87867,43.1346804 157.495866,42.7510065 157.023794,42.7510065 C156.550918,42.7510065 156.168114,43.1346804 156.168114,43.6068326 L156.168114,57.2855717 C156.168114,57.7585283 156.550918,58.1413978 157.023794,58.1413978 L171.555878,58.1413978 C172.02795,58.1413978 172.410754,57.7585283 172.410754,57.2855717 C172.410754,56.8142239 172.02795,56.43055 171.555878,56.43055" id="Fill-23"></path>
                    <path d="M287.818503,42.7511674 C287.345627,42.7511674 286.963627,43.1348413 286.963627,43.6061891 L286.963627,55.3078413 L273.87108,42.9844283 C273.624187,42.750363 273.262293,42.6892326 272.947042,42.82195 C272.6334,42.9578848 272.430739,43.2651457 272.430739,43.6061891 L272.430739,57.2857326 C272.430739,57.7586891 272.813543,58.1415587 273.286419,58.1415587 C273.758491,58.1415587 274.141295,57.7586891 274.141295,57.2857326 L274.141295,45.5848848 L287.232234,57.9082978 C287.394684,58.0611239 287.604583,58.1415587 287.818503,58.1415587 C287.932701,58.1415587 288.047703,58.1174283 288.15788,58.0707761 C288.471522,57.9356457 288.673379,57.6275804 288.673379,57.2857326 L288.673379,43.6061891 C288.673379,43.1348413 288.290575,42.7511674 287.818503,42.7511674" id="Fill-25"></path>
                    <path d="M73.1598358,44.4619348 C74.9693095,44.4619348 76.69032,44.8793913 78.1354863,45.6684565 C78.5528716,45.8944783 79.0699789,45.7416522 79.2959621,45.3282174 C79.5227495,44.9139783 79.3707537,44.3935652 78.9557811,44.1675435 C77.2597011,43.2409348 75.2556084,42.751087 73.1598358,42.751087 C67.6453642,42.751087 63.1578695,46.2033478 63.1578695,50.4462826 C63.1578695,54.6892174 67.6453642,58.1414783 73.1598358,58.1414783 C75.2556084,58.1414783 77.2597011,57.6508261 78.9557811,56.7250217 C79.3707537,56.499 79.5227495,55.9793913 79.2959621,55.5651522 C79.0699789,55.150913 78.5528716,54.998087 78.1354863,55.2241087 C76.69032,56.0131739 74.9693095,56.4306304 73.1598358,56.4306304 C68.5878989,56.4306304 64.8684253,53.7465217 64.8684253,50.4462826 C64.8684253,47.1460435 68.5878989,44.4619348 73.1598358,44.4619348" id="Fill-27"></path>
                    <path d="M149.158937,47.0257935 C149.158937,44.6690543 147.035821,42.7514891 144.427766,42.7514891 L133.770368,42.7514891 C133.297493,42.7514891 132.914688,43.1343587 132.914688,43.6065109 L132.914688,57.2860543 C132.914688,57.7590109 133.297493,58.1410761 133.770368,58.1410761 C134.24244,58.1410761 134.625244,57.7590109 134.625244,57.2860543 L134.625244,44.4615326 L144.427766,44.4615326 C146.093286,44.4615326 147.448381,45.61175 147.448381,47.0257935 C147.448381,48.4414457 146.093286,49.5908587 144.427766,49.5908587 L137.192284,49.5908587 C136.720213,49.5908587 136.337408,49.9737283 136.337408,50.4466848 C136.337408,50.918837 136.720213,51.3017065 137.192284,51.3017065 L143.930764,51.3017065 L147.560166,57.7075326 C147.716987,57.9850326 148.006503,58.1410761 148.304865,58.1410761 C148.447211,58.1410761 148.591968,58.1048804 148.725467,58.0300761 C149.135615,57.7976196 149.280373,57.2755978 149.047152,56.8637717 L145.782057,51.1014239 C147.728246,50.5713587 149.158937,48.9554239 149.158937,47.0257935" id="Fill-29"></path>
                    <path d="M358.431163,47.0257935 C358.431163,44.6690543 356.308047,42.7514891 353.699992,42.7514891 L343.042595,42.7514891 C342.569719,42.7514891 342.187719,43.1343587 342.187719,43.6065109 L342.187719,57.2860543 C342.187719,57.7590109 342.569719,58.1410761 343.042595,58.1410761 C343.514666,58.1410761 343.898275,57.7590109 343.898275,57.2860543 L343.898275,44.4615326 L353.699992,44.4615326 C355.365512,44.4615326 356.720607,45.61175 356.720607,47.0257935 C356.720607,48.4414457 355.365512,49.5908587 353.699992,49.5908587 L346.46451,49.5908587 C345.992439,49.5908587 345.609635,49.9737283 345.609635,50.4466848 C345.609635,50.918837 345.992439,51.3017065 346.46451,51.3017065 L353.20299,51.3017065 L356.833197,57.7075326 C356.989213,57.9850326 357.278729,58.1410761 357.577091,58.1410761 C357.719437,58.1410761 357.864999,58.1048804 357.997693,58.0300761 C358.407841,57.7976196 358.552599,57.2755978 358.319378,56.8637717 L355.054283,51.1014239 C357.000472,50.5713587 358.431163,48.9554239 358.431163,47.0257935" id="Fill-31"></path>
                    <path d="M307.19491,49.5912609 L299.959428,49.5912609 C299.486552,49.5912609 299.103748,49.9741304 299.103748,50.4462826 C299.103748,50.9184348 299.486552,51.3021087 299.959428,51.3021087 L307.19491,51.3021087 C308.86043,51.3021087 310.215525,52.4523261 310.215525,53.8663696 C310.215525,55.280413 308.86043,56.4306304 307.19491,56.4306304 L297.393192,56.4306304 L297.393192,44.4619348 L307.19491,44.4619348 C308.86043,44.4619348 310.215525,45.6121522 310.215525,47.0261957 C310.215525,48.4410435 308.86043,49.5912609 307.19491,49.5912609 M311.926081,47.0261957 C311.926081,44.6694565 309.802965,42.751087 307.19491,42.751087 L296.538317,42.751087 C296.065441,42.751087 295.683441,43.1347609 295.683441,43.606913 L295.683441,57.2856522 C295.683441,57.7586087 296.065441,58.1414783 296.538317,58.1414783 L307.19491,58.1414783 C309.802965,58.1414783 311.926081,56.2231087 311.926081,53.8663696 C311.926081,52.4692174 311.179773,51.2273043 310.029752,50.4462826 C311.179773,49.6652609 311.926081,48.4233478 311.926081,47.0261957" id="Fill-33"></path>
                    <path d="M264.566284,44.4619348 C265.038355,44.4619348 265.42116,44.0790652 265.42116,43.606913 C265.42116,43.1347609 265.038355,42.751087 264.566284,42.751087 L250.032591,42.751087 C249.56052,42.751087 249.176911,43.1347609 249.176911,43.606913 L249.176911,57.2856522 C249.176911,57.7586087 249.56052,58.1414783 250.032591,58.1414783 L264.566284,58.1414783 C265.038355,58.1414783 265.42116,57.7586087 265.42116,57.2856522 C265.42116,56.8135 265.038355,56.4306304 264.566284,56.4306304 L250.887467,56.4306304 L250.887467,51.3021087 L261.659867,51.3021087 C262.132743,51.3021087 262.514743,50.9184348 262.514743,50.4462826 C262.514743,49.9741304 262.132743,49.5912609 261.659867,49.5912609 L250.887467,49.5912609 L250.887467,44.4619348 L264.566284,44.4619348 Z" id="Fill-35"></path>
                    <path d="M334.322942,44.4619348 C334.795013,44.4619348 335.177818,44.0790652 335.177818,43.606913 C335.177818,43.1347609 334.795013,42.751087 334.322942,42.751087 L319.790858,42.751087 C319.317982,42.751087 318.935178,43.1347609 318.935178,43.606913 L318.935178,57.2856522 C318.935178,57.7586087 319.317982,58.1414783 319.790858,58.1414783 L334.322942,58.1414783 C334.795013,58.1414783 335.177818,57.7586087 335.177818,57.2856522 C335.177818,56.8135 334.795013,56.4306304 334.322942,56.4306304 L320.645733,56.4306304 L320.645733,51.3021087 L331.416525,51.3021087 C331.889401,51.3021087 332.271401,50.9184348 332.271401,50.4462826 C332.271401,49.9741304 331.889401,49.5912609 331.416525,49.5912609 L320.645733,49.5912609 L320.645733,44.4619348 L334.322942,44.4619348 Z" id="Fill-37"></path>
                    <path d="M380.828104,49.5912609 L375.014467,49.5912609 C374.542395,49.5912609 374.159591,49.9741304 374.159591,50.4462826 C374.159591,50.9184348 374.542395,51.3021087 375.014467,51.3021087 L379.973229,51.3021087 L379.973229,55.4517391 C378.624568,56.0936087 377.067616,56.4306304 375.441502,56.4306304 C370.868761,56.4306304 367.150092,53.7465217 367.150092,50.4462826 C367.150092,47.1460435 370.868761,44.4619348 375.441502,44.4619348 C377.250976,44.4619348 378.971182,44.8793913 380.417957,45.6684565 C380.836951,45.8944783 381.35245,45.7416522 381.579237,45.3282174 C381.80522,44.9139783 381.651616,44.3935652 381.238252,44.1675435 C379.540563,43.2409348 377.535667,42.751087 375.441502,42.751087 C369.926227,42.751087 365.439536,46.2033478 365.439536,50.4462826 C365.439536,54.6892174 369.926227,58.1414783 375.441502,58.1414783 C377.535667,58.1414783 379.540563,57.6516304 381.238252,56.7250217 C381.513292,56.5762174 381.68298,56.2882609 381.68298,55.9753696 L381.68298,50.4462826 C381.68298,49.9741304 381.30098,49.5912609 380.828104,49.5912609" id="Fill-39"></path>
                    <path d="M118.539264,43.2051413 C118.318107,42.7900978 117.80502,42.6324457 117.38281,42.8520326 C116.966229,43.0732283 116.807799,43.5912283 117.028957,44.0086848 L121.812401,53.0109457 L113.756624,53.0109457 L116.60353,47.6515761 C116.825492,47.2357283 116.666258,46.7169239 116.248873,46.4957283 C115.830683,46.275337 115.315184,46.4345978 115.093222,46.8504457 L109.762915,56.8854891 C109.541757,57.301337 109.700187,57.8201413 110.117572,58.041337 C110.244637,58.1080978 110.382157,58.1410761 110.51646,58.1410761 C110.822864,58.1410761 111.118814,57.9761848 111.273222,57.6866196 L112.847867,54.7217935 L122.721159,54.7217935 L124.296608,57.6882283 C124.451016,57.9761848 124.746161,58.1410761 125.052565,58.1410761 C125.186869,58.1410761 125.325193,58.1080978 125.453062,58.041337 C125.868839,57.8201413 126.028073,57.301337 125.806915,56.8846848 L118.539264,43.2051413 Z" id="Fill-41"></path>
                </g>
            </g>
        </g>
    </g>
</svg>